<svg id="svgQrWrapper" viewBox="0 0 300 300" xmlns="http://www.w3.org/2000/svg" xmlns:xlink="http://www.w3.org/1999/xlink" width="300" height="300" style="width: 100%; height: 100%; background-color: transparent;"><svg xmlns="http://www.w3.org/2000/svg" viewBox="0 0 1500 1500" width="300" height="300" fill="none"><g><defs><style>.cls-3wed1{fill:#07a599}.cls-3wed2{fill:#008d87}.cls-3wed3{fill:#ff5050}</style></defs><path d="M1209.32 1207.39c-259.59.57-657.99 4.29-914.62 4.27l-4.27.02v-4.29l-.93-457.31-.3-457.31v-5.5c155.08.09 541.34.3 691.47.68l228.66.53h4.31l-.01 4.29c-.04 255.6-3.25 656.16-4.29 914.62Zm0 0c-2.21-259.24-3.12-658.4-4.29-914.62l4.29 4.29c-255.29.28-656.42 1.46-914.63 1.2l5.5-5.5-.3 457.31-.92 457.31-4.28-4.28c255.07 1.22 656.63 2.41 914.62 4.28Z" class="cls-3wed2"/><path d="M722.97 1208.18c-85.48-20.43-162.83-17.64-246.75 8.1-35.18 10.01-70.15 23.48-106.88 27.37-48.77 5.53-95.42-13.49-129.13-48.51 30.76 27.83 71.36 45.67 113.08 43.91 41.89-1.73 80.96-18.06 120.96-29.47 40.33-11.95 82.25-20.02 124.46-20.19 42.08-.37 84.11 6.34 124.25 18.8Z" class="cls-3wed2"/><path d="M686.34 1198.75c10.73 18.98 9.67 30.31 6.8 37.11-6.16 14.59-23.76 15.8-35.82 35.94-4.78 7.99-6.71 15.63-7.59 20.55-2.77-2.6-20.11-19.37-18.37-42.82 1.84-24.85 24.37-47.18 54.98-50.78Z" class="cls-3wed2"/><path d="M685.82 1199.24c-2.84 16.93-9.11 23.33-14.24 26.07-11 5.87-22.37-2.12-39.73 4.22-6.88 2.51-11.85 6.24-14.83 8.81-.41-2.96-2.7-21.82 10-35.3 13.45-14.29 38.3-16.77 58.8-3.8Z" class="cls-3wed1"/><path d="M302.19 1234.07c8.97 12.75 9 20.89 7.44 25.93-3.36 10.82-15.8 12.91-22.98 28.08-2.84 6.02-3.68 11.59-3.96 15.16-2.15-1.65-15.67-12.38-16.07-29.19-.43-17.82 14.04-35.28 35.57-39.98Z" class="cls-3wed2"/><path d="M301.85 1234.45c-.84 12.25-4.85 17.24-8.31 19.55-7.42 4.95-16.07.06-27.98 5.78-4.72 2.27-8 5.27-9.94 7.31-.5-2.08-3.45-15.34 4.64-25.82 8.57-11.11 26.08-14.62 41.58-6.82ZM305.49 1237.32c7.24-7.3 8.33-12.53 8.02-15.93-.67-7.29-8.12-9.89-10.58-20.37-.98-4.16-.76-7.83-.47-10.15-1.55.85-11.35 6.39-13.81 17.16-2.6 11.42 4.09 24.11 16.84 29.29ZM417.66 1231.84c2.48-15.68-.87-23.21-4.33-27.19-7.42-8.53-19.09-5.07-31.63-15.97-4.97-4.33-8.02-9.12-9.74-12.29-1.18 2.46-8.46 18.24-1.82 33.95 7.04 16.65 26.87 26.5 47.52 21.5Z" class="cls-3wed1"/><path d="M245.52 1199.76c7.24-7.3 8.33-12.53 8.02-15.93-.67-7.29-8.12-9.89-10.58-20.37-.98-4.16-.76-7.83-.47-10.15-1.55.85-11.35 6.39-13.81 17.16-2.6 11.42 4.09 24.11 16.84 29.29ZM546.79 1196.59c13.68-13.27 14.57-22.85 12.92-29.1-3.52-13.41-20.47-18.32-28.8-37.61a47.384 47.384 0 0 1-3.9-18.64c-3.14 1.53-22.88 11.5-25.17 31.24-2.42 20.91 15.74 44.34 44.95 54.11ZM423.72 1231.52c8.13 8.88 8.05 14.66 6.52 18.27-3.28 7.75-14.85 9.49-21.73 20.42-2.73 4.33-3.58 8.31-3.9 10.85-1.97-1.13-14.35-8.47-14.48-20.41-.14-12.65 13.54-25.35 33.59-29.13ZM421.3 1231.73c6.12-6.52 6.54-11.2 5.82-14.25-1.54-6.54-9.07-8.9-12.73-18.31a25.024 25.024 0 0 1-1.69-9.1c-1.4.75-10.21 5.68-11.28 15.32-1.13 10.22 6.9 21.63 19.87 26.33Z" class="cls-3wed2"/><path d="M546.36 1196.07c.1-14.6-4.92-21.27-9.45-24.67-9.72-7.29-22.16-3.23-37.99-12.32a51.675 51.675 0 0 1-12.96-10.56c-.9 2.35-6.33 17.4 3.75 31.34 10.68 14.78 34.47 22.36 56.65 16.21ZM614.38 1193.13c9.02-9.45 9.22-15.75 7.78-19.72-3.08-8.53-15.23-10.73-21.96-22.81a28.747 28.747 0 0 1-3.59-11.92c-2.14 1.18-15.58 8.84-16.29 21.84-.76 13.77 13.07 27.97 34.06 32.61Z" class="cls-3wed1"/><path d="M781.05 1208.18c40.14-12.46 82.17-19.17 124.25-18.8 42.21.16 84.13 8.24 124.46 20.19 39.99 11.41 79.07 27.74 120.96 29.48 41.72 1.76 82.32-16.08 113.08-43.91-33.68 35.01-80.39 54.05-129.13 48.51-36.73-3.89-71.7-17.36-106.88-27.37-83.96-25.75-161.26-28.53-246.75-8.1Z" class="cls-3wed2"/><path d="M817.68 1198.75c-10.73 18.98-9.67 30.31-6.8 37.11 6.16 14.59 23.76 15.8 35.82 35.94 4.78 7.99 6.71 15.63 7.59 20.55 2.77-2.6 20.11-19.37 18.37-42.82-1.84-24.85-24.37-47.18-54.98-50.78Z" class="cls-3wed2"/><path d="M818.2 1199.24c2.84 16.93 9.11 23.33 14.24 26.07 11 5.87 22.37-2.12 39.73 4.22 6.88 2.51 11.85 6.24 14.83 8.81.41-2.96 2.7-21.82-10-35.3-13.45-14.29-38.3-16.77-58.8-3.8Z" class="cls-3wed1"/><path d="M1201.83 1234.07c-8.97 12.75-9 20.89-7.44 25.93 3.36 10.82 15.8 12.91 22.98 28.08 2.84 6.02 3.68 11.59 3.96 15.16 2.15-1.65 15.67-12.38 16.07-29.19.43-17.82-14.04-35.28-35.57-39.98Z" class="cls-3wed2"/><path d="M1202.17 1234.45c.84 12.25 4.85 17.24 8.31 19.55 7.42 4.95 16.07.06 27.98 5.78 4.72 2.27 8 5.27 9.94 7.31.5-2.08 3.45-15.34-4.64-25.82-8.57-11.11-26.08-14.62-41.58-6.82Z" class="cls-3wed1"/><path d="M1198.53 1237.32c-7.24-7.3-8.33-12.53-8.02-15.93.67-7.29 8.12-9.89 10.58-20.37.98-4.16.76-7.83.47-10.15 1.55.85 11.35 6.39 13.81 17.16 2.6 11.42-4.09 24.11-16.84 29.29ZM1086.36 1231.84c-2.48-15.68.87-23.21 4.33-27.19 7.42-8.53 19.09-5.07 31.63-15.97 4.97-4.33 8.02-9.12 9.74-12.29 1.18 2.46 8.46 18.24 1.82 33.95-7.04 16.65-26.87 26.5-47.52 21.5Z" class="cls-3wed1"/><path d="M1258.5 1199.76c-7.24-7.3-8.33-12.53-8.02-15.93.67-7.29 8.12-9.89 10.58-20.37.98-4.16.76-7.83.47-10.15 1.55.85 11.35 6.39 13.81 17.16 2.6 11.42-4.09 24.11-16.84 29.29ZM957.23 1196.59c-13.68-13.27-14.57-22.85-12.92-29.1 3.52-13.41 20.47-18.32 28.8-37.61 3.3-7.65 3.88-14.39 3.9-18.64 3.14 1.53 22.88 11.5 25.17 31.24 2.42 20.91-15.74 44.34-44.95 54.11ZM1080.3 1231.52c-8.13 8.88-8.05 14.66-6.52 18.27 3.28 7.75 14.85 9.49 21.73 20.42 2.73 4.33 3.58 8.31 3.9 10.85 1.97-1.13 14.35-8.47 14.48-20.41.14-12.65-13.54-25.35-33.59-29.13ZM1082.72 1231.73c-6.12-6.52-6.54-11.2-5.82-14.25 1.54-6.54 9.07-8.9 12.73-18.31 1.45-3.73 1.69-7.02 1.69-9.1 1.4.75 10.21 5.68 11.28 15.32 1.13 10.22-6.9 21.63-19.87 26.33Z" class="cls-3wed2"/><path d="M957.66 1196.07c-.1-14.6 4.92-21.27 9.45-24.67 9.72-7.29 22.16-3.23 37.99-12.32 6.28-3.6 10.49-7.78 12.96-10.56.9 2.35 6.33 17.4-3.75 31.34-10.68 14.78-34.47 22.36-56.65 16.21ZM889.64 1193.13c-9.02-9.45-9.22-15.75-7.78-19.72 3.08-8.53 15.23-10.73 21.96-22.81 2.67-4.79 3.38-9.15 3.59-11.92 2.14 1.18 15.58 8.84 16.29 21.84.76 13.77-13.07 27.97-34.06 32.61Z" class="cls-3wed1"/><path d="M792.61 1175.86c-2.23-10.58-14.48-22-27.75-19.32-8.38 1.69-15.2 8.61-17.83 17.56-2.29-9.16-9.33-16.12-17.83-17.56-12.01-2.05-22.24 7.72-25.2 16.64-.29.87-1.08 3.46-1.02 6.98.19 10.87 8.31 18.8 13.73 24.24 7.74 7.77 17.57 18.11 30.32 32.57 6.8-6.45 12.7-12.53 17.74-18.03 8.08-8.82 5.77-7.2 12.58-14.54 9.35-10.07 14.07-13.52 15.33-21.01.66-3.88.05-6.9-.08-7.53Z" class="cls-3wed3"/><path d="M718.95 293.7c-85.48-20.43-162.83-17.64-246.75 8.1-35.18 10.01-70.15 23.48-106.88 27.37-48.77 5.53-95.42-13.49-129.13-48.51 30.76 27.83 71.36 45.67 113.08 43.91 41.89-1.73 80.96-18.06 120.96-29.47 40.33-11.95 82.25-20.02 124.46-20.19 42.08-.37 84.11 6.34 124.25 18.8Z" class="cls-3wed2"/><path d="M682.32 284.28c10.73 18.98 9.67 30.31 6.8 37.11-6.16 14.59-23.76 15.8-35.82 35.94-4.78 7.99-6.71 15.63-7.59 20.55-2.77-2.6-20.11-19.37-18.37-42.82 1.84-24.85 24.37-47.18 54.98-50.78Z" class="cls-3wed2"/><path d="M681.8 284.76c-2.84 16.93-9.11 23.33-14.24 26.07-11 5.87-22.37-2.12-39.73 4.22-6.88 2.51-11.85 6.24-14.83 8.81-.41-2.96-2.7-21.82 10-35.3 13.45-14.29 38.3-16.77 58.8-3.8Z" class="cls-3wed1"/><path d="M298.17 319.59c8.97 12.75 9 20.89 7.44 25.93-3.36 10.82-15.8 12.91-22.98 28.08-2.84 6.02-3.68 11.59-3.96 15.16-2.15-1.65-15.67-12.38-16.07-29.19-.43-17.82 14.04-35.28 35.57-39.98Z" class="cls-3wed2"/><path d="M297.83 319.97c-.84 12.25-4.85 17.24-8.31 19.55-7.42 4.95-16.07.06-27.98 5.78-4.72 2.27-8 5.27-9.94 7.31-.5-2.08-3.45-15.34 4.64-25.82 8.57-11.11 26.08-14.62 41.58-6.82Z" class="cls-3wed1"/><path d="M301.47 322.84c7.24-7.3 8.33-12.53 8.02-15.93-.67-7.29-8.12-9.89-10.58-20.37-.98-4.16-.76-7.83-.47-10.15-1.55.85-11.35 6.39-13.81 17.16-2.6 11.42 4.09 24.11 16.84 29.29ZM413.64 317.37c2.48-15.68-.87-23.21-4.33-27.19-7.42-8.53-19.09-5.07-31.63-15.97-4.97-4.33-8.02-9.12-9.74-12.29-1.18 2.46-8.46 18.24-1.82 33.95 7.04 16.65 26.87 26.5 47.52 21.5Z" class="cls-3wed1"/><path d="M241.5 285.29c7.24-7.3 8.33-12.53 8.02-15.93-.67-7.29-8.12-9.89-10.58-20.37-.98-4.16-.76-7.83-.47-10.15-1.55.85-11.35 6.39-13.81 17.16-2.6 11.42 4.09 24.11 16.84 29.29ZM542.77 282.11c13.68-13.27 14.57-22.85 12.92-29.1-3.52-13.41-20.47-18.32-28.8-37.61a47.384 47.384 0 0 1-3.9-18.64c-3.14 1.53-22.88 11.5-25.17 31.24-2.42 20.91 15.74 44.34 44.95 54.11ZM419.7 317.04c8.13 8.88 8.05 14.66 6.52 18.27-3.28 7.75-14.85 9.49-21.73 20.42-2.73 4.33-3.58 8.31-3.9 10.85-1.97-1.13-14.35-8.47-14.48-20.41-.14-12.65 13.54-25.35 33.59-29.13ZM417.28 317.25c6.12-6.52 6.54-11.2 5.82-14.25-1.54-6.54-9.07-8.9-12.73-18.31a25.024 25.024 0 0 1-1.69-9.1c-1.4.75-10.21 5.68-11.28 15.32-1.13 10.22 6.9 21.63 19.87 26.33Z" class="cls-3wed2"/><path d="M542.34 281.6c.1-14.6-4.92-21.27-9.45-24.67-9.72-7.29-22.16-3.23-37.99-12.32a51.675 51.675 0 0 1-12.96-10.56c-.9 2.35-6.33 17.4 3.75 31.34 10.68 14.78 34.47 22.36 56.65 16.21ZM610.36 278.65c9.02-9.45 9.22-15.75 7.78-19.72-3.08-8.53-15.23-10.73-21.96-22.81a28.747 28.747 0 0 1-3.59-11.92c-2.14 1.18-15.58 8.84-16.29 21.84-.76 13.77 13.07 27.97 34.06 32.61Z" class="cls-3wed1"/><path d="M777.03 293.7c40.14-12.46 82.17-19.17 124.25-18.8 42.21.16 84.13 8.24 124.46 20.19 39.99 11.41 79.07 27.74 120.96 29.48 41.72 1.76 82.32-16.08 113.08-43.91-33.68 35.01-80.39 54.05-129.13 48.51-36.73-3.89-71.7-17.36-106.88-27.37-83.96-25.75-161.26-28.53-246.75-8.1Z" class="cls-3wed2"/><path d="M813.66 284.28c-10.73 18.98-9.67 30.31-6.8 37.11 6.16 14.59 23.76 15.8 35.82 35.94 4.78 7.99 6.71 15.63 7.59 20.55 2.77-2.6 20.11-19.37 18.37-42.82-1.84-24.85-24.37-47.18-54.98-50.78Z" class="cls-3wed2"/><path d="M814.18 284.76c2.84 16.93 9.11 23.33 14.24 26.07 11 5.87 22.37-2.12 39.73 4.22 6.88 2.51 11.85 6.24 14.83 8.81.41-2.96 2.7-21.82-10-35.3-13.45-14.29-38.3-16.77-58.8-3.8Z" class="cls-3wed1"/><path d="M1197.81 319.59c-8.97 12.75-9 20.89-7.44 25.93 3.36 10.82 15.8 12.91 22.98 28.08 2.84 6.02 3.68 11.59 3.96 15.16 2.15-1.65 15.67-12.38 16.07-29.19.43-17.82-14.04-35.28-35.57-39.98Z" class="cls-3wed2"/><path d="M1198.15 319.97c.84 12.25 4.85 17.24 8.31 19.55 7.42 4.95 16.07.06 27.98 5.78 4.72 2.27 8 5.27 9.94 7.31.5-2.08 3.45-15.34-4.64-25.82-8.57-11.11-26.08-14.62-41.58-6.82Z" class="cls-3wed1"/><path d="M1194.51 322.84c-7.24-7.3-8.33-12.53-8.02-15.93.67-7.29 8.12-9.89 10.58-20.37.98-4.16.76-7.83.47-10.15 1.55.85 11.35 6.39 13.81 17.16 2.6 11.42-4.09 24.11-16.84 29.29ZM1082.34 317.37c-2.48-15.68.87-23.21 4.33-27.19 7.42-8.53 19.09-5.07 31.63-15.97 4.97-4.33 8.02-9.12 9.74-12.29 1.18 2.46 8.46 18.24 1.82 33.95-7.04 16.65-26.87 26.5-47.52 21.5Z" class="cls-3wed1"/><path d="M1254.48 285.29c-7.24-7.3-8.33-12.53-8.02-15.93.67-7.29 8.12-9.89 10.58-20.37.98-4.16.76-7.83.47-10.15 1.55.85 11.35 6.39 13.81 17.16 2.6 11.42-4.09 24.11-16.84 29.29ZM953.21 282.11c-13.68-13.27-14.57-22.85-12.92-29.1 3.52-13.41 20.47-18.32 28.8-37.61 3.3-7.65 3.88-14.39 3.9-18.64 3.14 1.53 22.88 11.5 25.17 31.24 2.42 20.91-15.74 44.34-44.95 54.11ZM1076.28 317.04c-8.13 8.88-8.05 14.66-6.52 18.27 3.28 7.75 14.85 9.49 21.73 20.42 2.73 4.33 3.58 8.31 3.9 10.85 1.97-1.13 14.35-8.47 14.48-20.41.14-12.65-13.54-25.35-33.59-29.13ZM1078.7 317.25c-6.12-6.52-6.54-11.2-5.82-14.25 1.54-6.54 9.07-8.9 12.73-18.31 1.45-3.73 1.69-7.02 1.69-9.1 1.4.75 10.21 5.68 11.28 15.32 1.13 10.22-6.9 21.63-19.87 26.33Z" class="cls-3wed2"/><path d="M953.64 281.6c-.1-14.6 4.92-21.27 9.45-24.67 9.72-7.29 22.16-3.23 37.99-12.32 6.28-3.6 10.49-7.78 12.96-10.56.9 2.35 6.33 17.4-3.75 31.34-10.68 14.78-34.47 22.36-56.65 16.21ZM885.62 278.65c-9.02-9.45-9.22-15.75-7.78-19.72 3.08-8.53 15.23-10.73 21.96-22.81 2.67-4.79 3.38-9.15 3.59-11.92 2.14 1.18 15.58 8.84 16.29 21.84.76 13.77-13.07 27.97-34.06 32.61Z" class="cls-3wed1"/><path d="M788.59 261.38c-2.23-10.58-14.48-22-27.75-19.32-8.38 1.69-15.2 8.61-17.83 17.56-2.29-9.16-9.33-16.12-17.83-17.56-12.01-2.05-22.24 7.72-25.2 16.64-.29.87-1.08 3.46-1.02 6.98.19 10.87 8.31 18.8 13.73 24.24 7.74 7.77 17.57 18.11 30.32 32.57 6.8-6.45 12.7-12.53 17.74-18.03 8.08-8.82 5.77-7.2 12.58-14.54 9.35-10.07 14.07-13.52 15.33-21.01.66-3.88.05-6.9-.08-7.53Z" class="cls-3wed3"/><g transform="translate(420, 400)scale(2.3)" fill="none"><svg width="300" height="300"><style>.background-color{ fill: #fff; }.dot-color{ fill: #000000; }.corners-dot-color-0-0{ fill: #000000; }.corners-dot-color-1-0{ fill: #000000; }.corners-dot-color-0-1{ fill: #000000; }</style><defs><clipPath id="clip-path-corners-square-color-0-0"><rect x="5" y="5" width="10" height="10" transform="rotate(0,10,10)"/><rect x="5" y="15" width="10" height="10" transform="rotate(0,10,20)"/><rect x="5" y="25" width="10" height="10" transform="rotate(0,10,30)"/><rect x="5" y="35" width="10" height="10" transform="rotate(0,10,40)"/><rect x="5" y="45" width="10" height="10" transform="rotate(0,10,50)"/><rect x="5" y="55" width="10" height="10" transform="rotate(0,10,60)"/><rect x="5" y="65" width="10" height="10" transform="rotate(0,10,70)"/><rect x="15" y="5" width="10" height="10" transform="rotate(0,20,10)"/><rect x="15" y="65" width="10" height="10" transform="rotate(0,20,70)"/><rect x="25" y="5" width="10" height="10" transform="rotate(0,30,10)"/><rect x="25" y="65" width="10" height="10" transform="rotate(0,30,70)"/><rect x="35" y="5" width="10" height="10" transform="rotate(0,40,10)"/><rect x="35" y="65" width="10" height="10" transform="rotate(0,40,70)"/><rect x="45" y="5" width="10" height="10" transform="rotate(0,50,10)"/><rect x="45" y="65" width="10" height="10" transform="rotate(0,50,70)"/><rect x="55" y="5" width="10" height="10" transform="rotate(0,60,10)"/><rect x="55" y="65" width="10" height="10" transform="rotate(0,60,70)"/><rect x="65" y="5" width="10" height="10" transform="rotate(0,70,10)"/><rect x="65" y="15" width="10" height="10" transform="rotate(0,70,20)"/><rect x="65" y="25" width="10" height="10" transform="rotate(0,70,30)"/><rect x="65" y="35" width="10" height="10" transform="rotate(0,70,40)"/><rect x="65" y="45" width="10" height="10" transform="rotate(0,70,50)"/><rect x="65" y="55" width="10" height="10" transform="rotate(0,70,60)"/><rect x="65" y="65" width="10" height="10" transform="rotate(0,70,70)"/><rect x="25" y="25" width="10" height="10" transform="rotate(0,30,30)"/><rect x="25" y="35" width="10" height="10" transform="rotate(0,30,40)"/><rect x="25" y="45" width="10" height="10" transform="rotate(0,30,50)"/><rect x="35" y="25" width="10" height="10" transform="rotate(0,40,30)"/><rect x="35" y="35" width="10" height="10" transform="rotate(0,40,40)"/><rect x="35" y="45" width="10" height="10" transform="rotate(0,40,50)"/><rect x="45" y="25" width="10" height="10" transform="rotate(0,50,30)"/><rect x="45" y="35" width="10" height="10" transform="rotate(0,50,40)"/><rect x="45" y="45" width="10" height="10" transform="rotate(0,50,50)"/></clipPath><linearGradient id="corners-square-color-0-0" gradientUnits="userSpaceOnUse" x1="5" y1="40" x2="75" y2="40"><stop offset="0%" stop-color="#045262"/><stop offset="100%" stop-color="#4c0b22"/></linearGradient><clipPath id="clip-path-corners-square-color-1-0"><rect x="225" y="5" width="10" height="10" transform="rotate(0,230,10)"/><rect x="225" y="15" width="10" height="10" transform="rotate(0,230,20)"/><rect x="225" y="25" width="10" height="10" transform="rotate(0,230,30)"/><rect x="225" y="35" width="10" height="10" transform="rotate(0,230,40)"/><rect x="225" y="45" width="10" height="10" transform="rotate(0,230,50)"/><rect x="225" y="55" width="10" height="10" transform="rotate(0,230,60)"/><rect x="225" y="65" width="10" height="10" transform="rotate(0,230,70)"/><rect x="235" y="5" width="10" height="10" transform="rotate(0,240,10)"/><rect x="235" y="65" width="10" height="10" transform="rotate(0,240,70)"/><rect x="245" y="5" width="10" height="10" transform="rotate(0,250,10)"/><rect x="245" y="65" width="10" height="10" transform="rotate(0,250,70)"/><rect x="255" y="5" width="10" height="10" transform="rotate(0,260,10)"/><rect x="255" y="65" width="10" height="10" transform="rotate(0,260,70)"/><rect x="265" y="5" width="10" height="10" transform="rotate(0,270,10)"/><rect x="265" y="65" width="10" height="10" transform="rotate(0,270,70)"/><rect x="275" y="5" width="10" height="10" transform="rotate(0,280,10)"/><rect x="275" y="65" width="10" height="10" transform="rotate(0,280,70)"/><rect x="285" y="5" width="10" height="10" transform="rotate(0,290,10)"/><rect x="285" y="15" width="10" height="10" transform="rotate(0,290,20)"/><rect x="285" y="25" width="10" height="10" transform="rotate(0,290,30)"/><rect x="285" y="35" width="10" height="10" transform="rotate(0,290,40)"/><rect x="285" y="45" width="10" height="10" transform="rotate(0,290,50)"/><rect x="285" y="55" width="10" height="10" transform="rotate(0,290,60)"/><rect x="285" y="65" width="10" height="10" transform="rotate(0,290,70)"/><rect x="245" y="25" width="10" height="10" transform="rotate(0,250,30)"/><rect x="245" y="35" width="10" height="10" transform="rotate(0,250,40)"/><rect x="245" y="45" width="10" height="10" transform="rotate(0,250,50)"/><rect x="255" y="25" width="10" height="10" transform="rotate(0,260,30)"/><rect x="255" y="35" width="10" height="10" transform="rotate(0,260,40)"/><rect x="255" y="45" width="10" height="10" transform="rotate(0,260,50)"/><rect x="265" y="25" width="10" height="10" transform="rotate(0,270,30)"/><rect x="265" y="35" width="10" height="10" transform="rotate(0,270,40)"/><rect x="265" y="45" width="10" height="10" transform="rotate(0,270,50)"/></clipPath><linearGradient id="corners-square-color-1-0" gradientUnits="userSpaceOnUse" x1="260" y1="5" x2="260" y2="75"><stop offset="0%" stop-color="#045262"/><stop offset="100%" stop-color="#4c0b22"/></linearGradient><clipPath id="clip-path-corners-square-color-0-1"><rect x="5" y="225" width="10" height="10" transform="rotate(0,10,230)"/><rect x="5" y="235" width="10" height="10" transform="rotate(0,10,240)"/><rect x="5" y="245" width="10" height="10" transform="rotate(0,10,250)"/><rect x="5" y="255" width="10" height="10" transform="rotate(0,10,260)"/><rect x="5" y="265" width="10" height="10" transform="rotate(0,10,270)"/><rect x="5" y="275" width="10" height="10" transform="rotate(0,10,280)"/><rect x="5" y="285" width="10" height="10" transform="rotate(0,10,290)"/><rect x="15" y="225" width="10" height="10" transform="rotate(0,20,230)"/><rect x="15" y="285" width="10" height="10" transform="rotate(0,20,290)"/><rect x="25" y="225" width="10" height="10" transform="rotate(0,30,230)"/><rect x="25" y="285" width="10" height="10" transform="rotate(0,30,290)"/><rect x="35" y="225" width="10" height="10" transform="rotate(0,40,230)"/><rect x="35" y="285" width="10" height="10" transform="rotate(0,40,290)"/><rect x="45" y="225" width="10" height="10" transform="rotate(0,50,230)"/><rect x="45" y="285" width="10" height="10" transform="rotate(0,50,290)"/><rect x="55" y="225" width="10" height="10" transform="rotate(0,60,230)"/><rect x="55" y="285" width="10" height="10" transform="rotate(0,60,290)"/><rect x="65" y="225" width="10" height="10" transform="rotate(0,70,230)"/><rect x="65" y="235" width="10" height="10" transform="rotate(0,70,240)"/><rect x="65" y="245" width="10" height="10" transform="rotate(0,70,250)"/><rect x="65" y="255" width="10" height="10" transform="rotate(0,70,260)"/><rect x="65" y="265" width="10" height="10" transform="rotate(0,70,270)"/><rect x="65" y="275" width="10" height="10" transform="rotate(0,70,280)"/><rect x="65" y="285" width="10" height="10" transform="rotate(0,70,290)"/><rect x="25" y="245" width="10" height="10" transform="rotate(0,30,250)"/><rect x="25" y="255" width="10" height="10" transform="rotate(0,30,260)"/><rect x="25" y="265" width="10" height="10" transform="rotate(0,30,270)"/><rect x="35" y="245" width="10" height="10" transform="rotate(0,40,250)"/><rect x="35" y="255" width="10" height="10" transform="rotate(0,40,260)"/><rect x="35" y="265" width="10" height="10" transform="rotate(0,40,270)"/><rect x="45" y="245" width="10" height="10" transform="rotate(0,50,250)"/><rect x="45" y="255" width="10" height="10" transform="rotate(0,50,260)"/><rect x="45" y="265" width="10" height="10" transform="rotate(0,50,270)"/></clipPath><linearGradient id="corners-square-color-0-1" gradientUnits="userSpaceOnUse" x1="40" y1="295" x2="40" y2="225"><stop offset="0%" stop-color="#045262"/><stop offset="100%" stop-color="#4c0b22"/></linearGradient></defs><g class="dot-color"><rect x="5" y="95" width="10" height="10" transform="rotate(0,10,100)"/><rect x="5" y="115" width="10" height="10" transform="rotate(0,10,120)"/><rect x="5" y="135" width="10" height="10" transform="rotate(0,10,140)"/><rect x="5" y="155" width="10" height="10" transform="rotate(0,10,160)"/><rect x="5" y="165" width="10" height="10" transform="rotate(0,10,170)"/><rect x="5" y="175" width="10" height="10" transform="rotate(0,10,180)"/><rect x="5" y="185" width="10" height="10" transform="rotate(0,10,190)"/><rect x="5" y="195" width="10" height="10" transform="rotate(0,10,200)"/><rect x="15" y="95" width="10" height="10" transform="rotate(0,20,100)"/><rect x="15" y="115" width="10" height="10" transform="rotate(0,20,120)"/><rect x="15" y="125" width="10" height="10" transform="rotate(0,20,130)"/><rect x="15" y="135" width="10" height="10" transform="rotate(0,20,140)"/><rect x="15" y="175" width="10" height="10" transform="rotate(0,20,180)"/><rect x="15" y="195" width="10" height="10" transform="rotate(0,20,200)"/><rect x="25" y="85" width="10" height="10" transform="rotate(0,30,90)"/><rect x="25" y="95" width="10" height="10" transform="rotate(0,30,100)"/><rect x="25" y="105" width="10" height="10" transform="rotate(0,30,110)"/><rect x="25" y="115" width="10" height="10" transform="rotate(0,30,120)"/><rect x="25" y="135" width="10" height="10" transform="rotate(0,30,140)"/><rect x="25" y="165" width="10" height="10" transform="rotate(0,30,170)"/><rect x="25" y="175" width="10" height="10" transform="rotate(0,30,180)"/><rect x="25" y="195" width="10" height="10" transform="rotate(0,30,200)"/><rect x="25" y="205" width="10" height="10" transform="rotate(0,30,210)"/><rect x="35" y="115" width="10" height="10" transform="rotate(0,40,120)"/><rect x="35" y="145" width="10" height="10" transform="rotate(0,40,150)"/><rect x="35" y="155" width="10" height="10" transform="rotate(0,40,160)"/><rect x="35" y="165" width="10" height="10" transform="rotate(0,40,170)"/><rect x="35" y="185" width="10" height="10" transform="rotate(0,40,190)"/><rect x="35" y="195" width="10" height="10" transform="rotate(0,40,200)"/><rect x="45" y="85" width="10" height="10" transform="rotate(0,50,90)"/><rect x="45" y="105" width="10" height="10" transform="rotate(0,50,110)"/><rect x="45" y="115" width="10" height="10" transform="rotate(0,50,120)"/><rect x="45" y="125" width="10" height="10" transform="rotate(0,50,130)"/><rect x="45" y="145" width="10" height="10" transform="rotate(0,50,150)"/><rect x="45" y="155" width="10" height="10" transform="rotate(0,50,160)"/><rect x="45" y="165" width="10" height="10" transform="rotate(0,50,170)"/><rect x="45" y="185" width="10" height="10" transform="rotate(0,50,190)"/><rect x="45" y="205" width="10" height="10" transform="rotate(0,50,210)"/><rect x="55" y="85" width="10" height="10" transform="rotate(0,60,90)"/><rect x="55" y="145" width="10" height="10" transform="rotate(0,60,150)"/><rect x="55" y="175" width="10" height="10" transform="rotate(0,60,180)"/><rect x="55" y="195" width="10" height="10" transform="rotate(0,60,200)"/><rect x="55" y="205" width="10" height="10" transform="rotate(0,60,210)"/><rect x="65" y="85" width="10" height="10" transform="rotate(0,70,90)"/><rect x="65" y="105" width="10" height="10" transform="rotate(0,70,110)"/><rect x="65" y="125" width="10" height="10" transform="rotate(0,70,130)"/><rect x="65" y="145" width="10" height="10" transform="rotate(0,70,150)"/><rect x="65" y="165" width="10" height="10" transform="rotate(0,70,170)"/><rect x="65" y="185" width="10" height="10" transform="rotate(0,70,190)"/><rect x="65" y="205" width="10" height="10" transform="rotate(0,70,210)"/><rect x="75" y="95" width="10" height="10" transform="rotate(0,80,100)"/><rect x="75" y="105" width="10" height="10" transform="rotate(0,80,110)"/><rect x="75" y="135" width="10" height="10" transform="rotate(0,80,140)"/><rect x="75" y="145" width="10" height="10" transform="rotate(0,80,150)"/><rect x="75" y="155" width="10" height="10" transform="rotate(0,80,160)"/><rect x="75" y="175" width="10" height="10" transform="rotate(0,80,180)"/><rect x="75" y="195" width="10" height="10" transform="rotate(0,80,200)"/><rect x="85" y="15" width="10" height="10" transform="rotate(0,90,20)"/><rect x="85" y="45" width="10" height="10" transform="rotate(0,90,50)"/><rect x="85" y="65" width="10" height="10" transform="rotate(0,90,70)"/><rect x="85" y="85" width="10" height="10" transform="rotate(0,90,90)"/><rect x="85" y="95" width="10" height="10" transform="rotate(0,90,100)"/><rect x="85" y="115" width="10" height="10" transform="rotate(0,90,120)"/><rect x="85" y="125" width="10" height="10" transform="rotate(0,90,130)"/><rect x="85" y="155" width="10" height="10" transform="rotate(0,90,160)"/><rect x="85" y="195" width="10" height="10" transform="rotate(0,90,200)"/><rect x="85" y="205" width="10" height="10" transform="rotate(0,90,210)"/><rect x="85" y="215" width="10" height="10" transform="rotate(0,90,220)"/><rect x="85" y="235" width="10" height="10" transform="rotate(0,90,240)"/><rect x="85" y="245" width="10" height="10" transform="rotate(0,90,250)"/><rect x="85" y="265" width="10" height="10" transform="rotate(0,90,270)"/><rect x="95" y="15" width="10" height="10" transform="rotate(0,100,20)"/><rect x="95" y="25" width="10" height="10" transform="rotate(0,100,30)"/><rect x="95" y="45" width="10" height="10" transform="rotate(0,100,50)"/><rect x="95" y="75" width="10" height="10" transform="rotate(0,100,80)"/><rect x="95" y="115" width="10" height="10" transform="rotate(0,100,120)"/><rect x="95" y="125" width="10" height="10" transform="rotate(0,100,130)"/><rect x="95" y="135" width="10" height="10" transform="rotate(0,100,140)"/><rect x="95" y="175" width="10" height="10" transform="rotate(0,100,180)"/><rect x="95" y="195" width="10" height="10" transform="rotate(0,100,200)"/><rect x="95" y="215" width="10" height="10" transform="rotate(0,100,220)"/><rect x="95" y="225" width="10" height="10" transform="rotate(0,100,230)"/><rect x="95" y="245" width="10" height="10" transform="rotate(0,100,250)"/><rect x="95" y="255" width="10" height="10" transform="rotate(0,100,260)"/><rect x="95" y="265" width="10" height="10" transform="rotate(0,100,270)"/><rect x="95" y="275" width="10" height="10" transform="rotate(0,100,280)"/><rect x="95" y="285" width="10" height="10" transform="rotate(0,100,290)"/><rect x="105" y="5" width="10" height="10" transform="rotate(0,110,10)"/><rect x="105" y="25" width="10" height="10" transform="rotate(0,110,30)"/><rect x="105" y="65" width="10" height="10" transform="rotate(0,110,70)"/><rect x="105" y="75" width="10" height="10" transform="rotate(0,110,80)"/><rect x="105" y="105" width="10" height="10" transform="rotate(0,110,110)"/><rect x="105" y="135" width="10" height="10" transform="rotate(0,110,140)"/><rect x="105" y="155" width="10" height="10" transform="rotate(0,110,160)"/><rect x="105" y="165" width="10" height="10" transform="rotate(0,110,170)"/><rect x="105" y="175" width="10" height="10" transform="rotate(0,110,180)"/><rect x="105" y="185" width="10" height="10" transform="rotate(0,110,190)"/><rect x="105" y="205" width="10" height="10" transform="rotate(0,110,210)"/><rect x="105" y="215" width="10" height="10" transform="rotate(0,110,220)"/><rect x="105" y="255" width="10" height="10" transform="rotate(0,110,260)"/><rect x="105" y="265" width="10" height="10" transform="rotate(0,110,270)"/><rect x="105" y="285" width="10" height="10" transform="rotate(0,110,290)"/><rect x="115" y="5" width="10" height="10" transform="rotate(0,120,10)"/><rect x="115" y="35" width="10" height="10" transform="rotate(0,120,40)"/><rect x="115" y="45" width="10" height="10" transform="rotate(0,120,50)"/><rect x="115" y="75" width="10" height="10" transform="rotate(0,120,80)"/><rect x="115" y="95" width="10" height="10" transform="rotate(0,120,100)"/><rect x="115" y="145" width="10" height="10" transform="rotate(0,120,150)"/><rect x="115" y="175" width="10" height="10" transform="rotate(0,120,180)"/><rect x="115" y="185" width="10" height="10" transform="rotate(0,120,190)"/><rect x="115" y="205" width="10" height="10" transform="rotate(0,120,210)"/><rect x="115" y="215" width="10" height="10" transform="rotate(0,120,220)"/><rect x="115" y="255" width="10" height="10" transform="rotate(0,120,260)"/><rect x="115" y="275" width="10" height="10" transform="rotate(0,120,280)"/><rect x="115" y="285" width="10" height="10" transform="rotate(0,120,290)"/><rect x="125" y="5" width="10" height="10" transform="rotate(0,130,10)"/><rect x="125" y="25" width="10" height="10" transform="rotate(0,130,30)"/><rect x="125" y="55" width="10" height="10" transform="rotate(0,130,60)"/><rect x="125" y="65" width="10" height="10" transform="rotate(0,130,70)"/><rect x="125" y="105" width="10" height="10" transform="rotate(0,130,110)"/><rect x="125" y="145" width="10" height="10" transform="rotate(0,130,150)"/><rect x="125" y="155" width="10" height="10" transform="rotate(0,130,160)"/><rect x="125" y="175" width="10" height="10" transform="rotate(0,130,180)"/><rect x="125" y="195" width="10" height="10" transform="rotate(0,130,200)"/><rect x="125" y="235" width="10" height="10" transform="rotate(0,130,240)"/><rect x="125" y="255" width="10" height="10" transform="rotate(0,130,260)"/><rect x="125" y="285" width="10" height="10" transform="rotate(0,130,290)"/><rect x="135" y="5" width="10" height="10" transform="rotate(0,140,10)"/><rect x="135" y="15" width="10" height="10" transform="rotate(0,140,20)"/><rect x="135" y="85" width="10" height="10" transform="rotate(0,140,90)"/><rect x="135" y="115" width="10" height="10" transform="rotate(0,140,120)"/><rect x="135" y="125" width="10" height="10" transform="rotate(0,140,130)"/><rect x="135" y="165" width="10" height="10" transform="rotate(0,140,170)"/><rect x="135" y="185" width="10" height="10" transform="rotate(0,140,190)"/><rect x="135" y="225" width="10" height="10" transform="rotate(0,140,230)"/><rect x="135" y="245" width="10" height="10" transform="rotate(0,140,250)"/><rect x="135" y="265" width="10" height="10" transform="rotate(0,140,270)"/><rect x="135" y="285" width="10" height="10" transform="rotate(0,140,290)"/><rect x="145" y="25" width="10" height="10" transform="rotate(0,150,30)"/><rect x="145" y="45" width="10" height="10" transform="rotate(0,150,50)"/><rect x="145" y="55" width="10" height="10" transform="rotate(0,150,60)"/><rect x="145" y="65" width="10" height="10" transform="rotate(0,150,70)"/><rect x="145" y="75" width="10" height="10" transform="rotate(0,150,80)"/><rect x="145" y="85" width="10" height="10" transform="rotate(0,150,90)"/><rect x="145" y="95" width="10" height="10" transform="rotate(0,150,100)"/><rect x="145" y="105" width="10" height="10" transform="rotate(0,150,110)"/><rect x="145" y="115" width="10" height="10" transform="rotate(0,150,120)"/><rect x="145" y="135" width="10" height="10" transform="rotate(0,150,140)"/><rect x="145" y="155" width="10" height="10" transform="rotate(0,150,160)"/><rect x="145" y="165" width="10" height="10" transform="rotate(0,150,170)"/><rect x="145" y="175" width="10" height="10" transform="rotate(0,150,180)"/><rect x="145" y="205" width="10" height="10" transform="rotate(0,150,210)"/><rect x="145" y="215" width="10" height="10" transform="rotate(0,150,220)"/><rect x="145" y="225" width="10" height="10" transform="rotate(0,150,230)"/><rect x="145" y="245" width="10" height="10" transform="rotate(0,150,250)"/><rect x="145" y="285" width="10" height="10" transform="rotate(0,150,290)"/><rect x="155" y="15" width="10" height="10" transform="rotate(0,160,20)"/><rect x="155" y="55" width="10" height="10" transform="rotate(0,160,60)"/><rect x="155" y="75" width="10" height="10" transform="rotate(0,160,80)"/><rect x="155" y="85" width="10" height="10" transform="rotate(0,160,90)"/><rect x="155" y="135" width="10" height="10" transform="rotate(0,160,140)"/><rect x="155" y="145" width="10" height="10" transform="rotate(0,160,150)"/><rect x="155" y="165" width="10" height="10" transform="rotate(0,160,170)"/><rect x="155" y="175" width="10" height="10" transform="rotate(0,160,180)"/><rect x="155" y="235" width="10" height="10" transform="rotate(0,160,240)"/><rect x="155" y="255" width="10" height="10" transform="rotate(0,160,260)"/><rect x="155" y="275" width="10" height="10" transform="rotate(0,160,280)"/><rect x="165" y="35" width="10" height="10" transform="rotate(0,170,40)"/><rect x="165" y="45" width="10" height="10" transform="rotate(0,170,50)"/><rect x="165" y="55" width="10" height="10" transform="rotate(0,170,60)"/><rect x="165" y="65" width="10" height="10" transform="rotate(0,170,70)"/><rect x="165" y="85" width="10" height="10" transform="rotate(0,170,90)"/><rect x="165" y="95" width="10" height="10" transform="rotate(0,170,100)"/><rect x="165" y="105" width="10" height="10" transform="rotate(0,170,110)"/><rect x="165" y="125" width="10" height="10" transform="rotate(0,170,130)"/><rect x="165" y="155" width="10" height="10" transform="rotate(0,170,160)"/><rect x="165" y="185" width="10" height="10" transform="rotate(0,170,190)"/><rect x="165" y="195" width="10" height="10" transform="rotate(0,170,200)"/><rect x="165" y="205" width="10" height="10" transform="rotate(0,170,210)"/><rect x="165" y="235" width="10" height="10" transform="rotate(0,170,240)"/><rect x="165" y="275" width="10" height="10" transform="rotate(0,170,280)"/><rect x="165" y="285" width="10" height="10" transform="rotate(0,170,290)"/><rect x="175" y="5" width="10" height="10" transform="rotate(0,180,10)"/><rect x="175" y="15" width="10" height="10" transform="rotate(0,180,20)"/><rect x="175" y="25" width="10" height="10" transform="rotate(0,180,30)"/><rect x="175" y="35" width="10" height="10" transform="rotate(0,180,40)"/><rect x="175" y="55" width="10" height="10" transform="rotate(0,180,60)"/><rect x="175" y="75" width="10" height="10" transform="rotate(0,180,80)"/><rect x="175" y="85" width="10" height="10" transform="rotate(0,180,90)"/><rect x="175" y="95" width="10" height="10" transform="rotate(0,180,100)"/><rect x="175" y="105" width="10" height="10" transform="rotate(0,180,110)"/><rect x="175" y="125" width="10" height="10" transform="rotate(0,180,130)"/><rect x="175" y="135" width="10" height="10" transform="rotate(0,180,140)"/><rect x="175" y="145" width="10" height="10" transform="rotate(0,180,150)"/><rect x="175" y="165" width="10" height="10" transform="rotate(0,180,170)"/><rect x="175" y="185" width="10" height="10" transform="rotate(0,180,190)"/><rect x="175" y="215" width="10" height="10" transform="rotate(0,180,220)"/><rect x="175" y="225" width="10" height="10" transform="rotate(0,180,230)"/><rect x="175" y="235" width="10" height="10" transform="rotate(0,180,240)"/><rect x="175" y="245" width="10" height="10" transform="rotate(0,180,250)"/><rect x="175" y="285" width="10" height="10" transform="rotate(0,180,290)"/><rect x="185" y="35" width="10" height="10" transform="rotate(0,190,40)"/><rect x="185" y="55" width="10" height="10" transform="rotate(0,190,60)"/><rect x="185" y="65" width="10" height="10" transform="rotate(0,190,70)"/><rect x="185" y="75" width="10" height="10" transform="rotate(0,190,80)"/><rect x="185" y="125" width="10" height="10" transform="rotate(0,190,130)"/><rect x="185" y="135" width="10" height="10" transform="rotate(0,190,140)"/><rect x="185" y="165" width="10" height="10" transform="rotate(0,190,170)"/><rect x="185" y="175" width="10" height="10" transform="rotate(0,190,180)"/><rect x="185" y="185" width="10" height="10" transform="rotate(0,190,190)"/><rect x="185" y="245" width="10" height="10" transform="rotate(0,190,250)"/><rect x="185" y="255" width="10" height="10" transform="rotate(0,190,260)"/><rect x="185" y="265" width="10" height="10" transform="rotate(0,190,270)"/><rect x="185" y="285" width="10" height="10" transform="rotate(0,190,290)"/><rect x="195" y="25" width="10" height="10" transform="rotate(0,200,30)"/><rect x="195" y="35" width="10" height="10" transform="rotate(0,200,40)"/><rect x="195" y="75" width="10" height="10" transform="rotate(0,200,80)"/><rect x="195" y="95" width="10" height="10" transform="rotate(0,200,100)"/><rect x="195" y="115" width="10" height="10" transform="rotate(0,200,120)"/><rect x="195" y="125" width="10" height="10" transform="rotate(0,200,130)"/><rect x="195" y="135" width="10" height="10" transform="rotate(0,200,140)"/><rect x="195" y="145" width="10" height="10" transform="rotate(0,200,150)"/><rect x="195" y="175" width="10" height="10" transform="rotate(0,200,180)"/><rect x="195" y="185" width="10" height="10" transform="rotate(0,200,190)"/><rect x="195" y="195" width="10" height="10" transform="rotate(0,200,200)"/><rect x="195" y="245" width="10" height="10" transform="rotate(0,200,250)"/><rect x="195" y="255" width="10" height="10" transform="rotate(0,200,260)"/><rect x="195" y="285" width="10" height="10" transform="rotate(0,200,290)"/><rect x="205" y="5" width="10" height="10" transform="rotate(0,210,10)"/><rect x="205" y="15" width="10" height="10" transform="rotate(0,210,20)"/><rect x="205" y="35" width="10" height="10" transform="rotate(0,210,40)"/><rect x="205" y="55" width="10" height="10" transform="rotate(0,210,60)"/><rect x="205" y="65" width="10" height="10" transform="rotate(0,210,70)"/><rect x="205" y="85" width="10" height="10" transform="rotate(0,210,90)"/><rect x="205" y="95" width="10" height="10" transform="rotate(0,210,100)"/><rect x="205" y="105" width="10" height="10" transform="rotate(0,210,110)"/><rect x="205" y="125" width="10" height="10" transform="rotate(0,210,130)"/><rect x="205" y="135" width="10" height="10" transform="rotate(0,210,140)"/><rect x="205" y="145" width="10" height="10" transform="rotate(0,210,150)"/><rect x="205" y="155" width="10" height="10" transform="rotate(0,210,160)"/><rect x="205" y="165" width="10" height="10" transform="rotate(0,210,170)"/><rect x="205" y="175" width="10" height="10" transform="rotate(0,210,180)"/><rect x="205" y="185" width="10" height="10" transform="rotate(0,210,190)"/><rect x="205" y="205" width="10" height="10" transform="rotate(0,210,210)"/><rect x="205" y="215" width="10" height="10" transform="rotate(0,210,220)"/><rect x="205" y="225" width="10" height="10" transform="rotate(0,210,230)"/><rect x="205" y="235" width="10" height="10" transform="rotate(0,210,240)"/><rect x="205" y="245" width="10" height="10" transform="rotate(0,210,250)"/><rect x="205" y="255" width="10" height="10" transform="rotate(0,210,260)"/><rect x="205" y="275" width="10" height="10" transform="rotate(0,210,280)"/><rect x="205" y="285" width="10" height="10" transform="rotate(0,210,290)"/><rect x="215" y="85" width="10" height="10" transform="rotate(0,220,90)"/><rect x="215" y="95" width="10" height="10" transform="rotate(0,220,100)"/><rect x="215" y="105" width="10" height="10" transform="rotate(0,220,110)"/><rect x="215" y="155" width="10" height="10" transform="rotate(0,220,160)"/><rect x="215" y="165" width="10" height="10" transform="rotate(0,220,170)"/><rect x="215" y="175" width="10" height="10" transform="rotate(0,220,180)"/><rect x="215" y="185" width="10" height="10" transform="rotate(0,220,190)"/><rect x="215" y="205" width="10" height="10" transform="rotate(0,220,210)"/><rect x="215" y="245" width="10" height="10" transform="rotate(0,220,250)"/><rect x="215" y="265" width="10" height="10" transform="rotate(0,220,270)"/><rect x="215" y="285" width="10" height="10" transform="rotate(0,220,290)"/><rect x="225" y="105" width="10" height="10" transform="rotate(0,230,110)"/><rect x="225" y="135" width="10" height="10" transform="rotate(0,230,140)"/><rect x="225" y="145" width="10" height="10" transform="rotate(0,230,150)"/><rect x="225" y="155" width="10" height="10" transform="rotate(0,230,160)"/><rect x="225" y="185" width="10" height="10" transform="rotate(0,230,190)"/><rect x="225" y="195" width="10" height="10" transform="rotate(0,230,200)"/><rect x="225" y="205" width="10" height="10" transform="rotate(0,230,210)"/><rect x="225" y="225" width="10" height="10" transform="rotate(0,230,230)"/><rect x="225" y="245" width="10" height="10" transform="rotate(0,230,250)"/><rect x="225" y="275" width="10" height="10" transform="rotate(0,230,280)"/><rect x="225" y="285" width="10" height="10" transform="rotate(0,230,290)"/><rect x="235" y="95" width="10" height="10" transform="rotate(0,240,100)"/><rect x="235" y="105" width="10" height="10" transform="rotate(0,240,110)"/><rect x="235" y="125" width="10" height="10" transform="rotate(0,240,130)"/><rect x="235" y="145" width="10" height="10" transform="rotate(0,240,150)"/><rect x="235" y="155" width="10" height="10" transform="rotate(0,240,160)"/><rect x="235" y="165" width="10" height="10" transform="rotate(0,240,170)"/><rect x="235" y="195" width="10" height="10" transform="rotate(0,240,200)"/><rect x="235" y="205" width="10" height="10" transform="rotate(0,240,210)"/><rect x="235" y="245" width="10" height="10" transform="rotate(0,240,250)"/><rect x="235" y="255" width="10" height="10" transform="rotate(0,240,260)"/><rect x="235" y="275" width="10" height="10" transform="rotate(0,240,280)"/><rect x="245" y="85" width="10" height="10" transform="rotate(0,250,90)"/><rect x="245" y="95" width="10" height="10" transform="rotate(0,250,100)"/><rect x="245" y="115" width="10" height="10" transform="rotate(0,250,120)"/><rect x="245" y="135" width="10" height="10" transform="rotate(0,250,140)"/><rect x="245" y="165" width="10" height="10" transform="rotate(0,250,170)"/><rect x="245" y="195" width="10" height="10" transform="rotate(0,250,200)"/><rect x="245" y="205" width="10" height="10" transform="rotate(0,250,210)"/><rect x="245" y="215" width="10" height="10" transform="rotate(0,250,220)"/><rect x="245" y="225" width="10" height="10" transform="rotate(0,250,230)"/><rect x="245" y="235" width="10" height="10" transform="rotate(0,250,240)"/><rect x="245" y="245" width="10" height="10" transform="rotate(0,250,250)"/><rect x="255" y="95" width="10" height="10" transform="rotate(0,260,100)"/><rect x="255" y="145" width="10" height="10" transform="rotate(0,260,150)"/><rect x="255" y="175" width="10" height="10" transform="rotate(0,260,180)"/><rect x="255" y="185" width="10" height="10" transform="rotate(0,260,190)"/><rect x="255" y="235" width="10" height="10" transform="rotate(0,260,240)"/><rect x="255" y="275" width="10" height="10" transform="rotate(0,260,280)"/><rect x="265" y="95" width="10" height="10" transform="rotate(0,270,100)"/><rect x="265" y="115" width="10" height="10" transform="rotate(0,270,120)"/><rect x="265" y="135" width="10" height="10" transform="rotate(0,270,140)"/><rect x="265" y="155" width="10" height="10" transform="rotate(0,270,160)"/><rect x="265" y="175" width="10" height="10" transform="rotate(0,270,180)"/><rect x="265" y="185" width="10" height="10" transform="rotate(0,270,190)"/><rect x="265" y="195" width="10" height="10" transform="rotate(0,270,200)"/><rect x="265" y="205" width="10" height="10" transform="rotate(0,270,210)"/><rect x="265" y="215" width="10" height="10" transform="rotate(0,270,220)"/><rect x="265" y="255" width="10" height="10" transform="rotate(0,270,260)"/><rect x="265" y="275" width="10" height="10" transform="rotate(0,270,280)"/><rect x="265" y="285" width="10" height="10" transform="rotate(0,270,290)"/><rect x="275" y="85" width="10" height="10" transform="rotate(0,280,90)"/><rect x="275" y="115" width="10" height="10" transform="rotate(0,280,120)"/><rect x="275" y="145" width="10" height="10" transform="rotate(0,280,150)"/><rect x="275" y="155" width="10" height="10" transform="rotate(0,280,160)"/><rect x="275" y="165" width="10" height="10" transform="rotate(0,280,170)"/><rect x="275" y="175" width="10" height="10" transform="rotate(0,280,180)"/><rect x="275" y="185" width="10" height="10" transform="rotate(0,280,190)"/><rect x="275" y="195" width="10" height="10" transform="rotate(0,280,200)"/><rect x="275" y="205" width="10" height="10" transform="rotate(0,280,210)"/><rect x="275" y="225" width="10" height="10" transform="rotate(0,280,230)"/><rect x="275" y="235" width="10" height="10" transform="rotate(0,280,240)"/><rect x="275" y="275" width="10" height="10" transform="rotate(0,280,280)"/><rect x="275" y="285" width="10" height="10" transform="rotate(0,280,290)"/><rect x="285" y="105" width="10" height="10" transform="rotate(0,290,110)"/><rect x="285" y="135" width="10" height="10" transform="rotate(0,290,140)"/><rect x="285" y="145" width="10" height="10" transform="rotate(0,290,150)"/><rect x="285" y="165" width="10" height="10" transform="rotate(0,290,170)"/><rect x="285" y="175" width="10" height="10" transform="rotate(0,290,180)"/><rect x="285" y="205" width="10" height="10" transform="rotate(0,290,210)"/><rect x="285" y="225" width="10" height="10" transform="rotate(0,290,230)"/><rect x="285" y="245" width="10" height="10" transform="rotate(0,290,250)"/><rect x="285" y="255" width="10" height="10" transform="rotate(0,290,260)"/><rect x="285" y="275" width="10" height="10" transform="rotate(0,290,280)"/></g><rect x="5" y="5" height="70" width="70" clip-path="url('#clip-path-corners-square-color-0-0')" fill="url('#corners-square-color-0-0')"/><g class="corners-dot-color-0-0"/><rect x="225" y="5" height="70" width="70" clip-path="url('#clip-path-corners-square-color-1-0')" fill="url('#corners-square-color-1-0')"/><g class="corners-dot-color-1-0"/><rect x="5" y="225" height="70" width="70" clip-path="url('#clip-path-corners-square-color-0-1')" fill="url('#corners-square-color-0-1')"/><g class="corners-dot-color-0-1"/></svg></g></g></svg></svg>